<svg width="62" height="62" viewBox="0 0 62 62" fill="none" xmlns="http://www.w3.org/2000/svg">
<path d="M0 31C0 48.125 13.875 62 31 62C48.125 62 62 48.125 62 31C62 13.875 48.125 0 31 0C13.875 0 0 13.875 0 31ZM56 31C56 44.875 44.75 56 31 56C17.125 56 6 44.875 6 31C6 17.25 17.125 6 31 6C44.75 6 56 17.25 56 31ZM47 28.5C47 27.75 46.25 27 45.5 27H31V18.625C31 17.375 29.375 16.625 28.375 17.625L16 30C15.375 30.625 15.375 31.5 16 32.125L28.375 44.5C29.375 45.375 31 44.75 31 43.375V35H45.5C46.25 35 47 34.375 47 33.5V28.5Z" fill="white"/>
</svg>
