<svg width="62" height="62" viewBox="0 0 62 62" fill="none" xmlns="http://www.w3.org/2000/svg">
<path d="M62 31C62 13.875 48.125 0 31 0C13.875 0 0 13.875 0 31C0 48.125 13.875 62 31 62C48.125 62 62 48.125 62 31ZM6 31C6 17.25 17.125 6 31 6C44.75 6 56 17.25 56 31C56 44.875 44.75 56 31 56C17.125 56 6 44.875 6 31ZM15 33.5C15 34.375 15.625 35 16.5 35H31V43.375C31 44.75 32.5 45.5 33.5 44.5L45.875 32.125C46.5 31.5 46.5 30.625 45.875 30L33.5 17.625C32.5 16.625 31 17.375 31 18.625V27H16.5C15.625 27 15 27.75 15 28.5V33.5Z" fill="white"/>
</svg>
