<svg width="165" height="165" viewBox="0 0 165 165" fill="none" xmlns="http://www.w3.org/2000/svg">
<path d="M39.901 67.175C44.2505 67.1479 48.4442 65.5527 51.7121 62.6822C54.98 59.8117 57.1027 55.8586 57.6903 51.549C58.278 47.2393 57.2913 42.8622 54.9113 39.2215C52.5313 35.5809 48.9178 32.921 44.7343 31.7303L22.5239 53.9408C23.5732 57.7442 25.8412 61.0984 28.9801 63.489C32.119 65.8795 35.9554 67.1744 39.901 67.175Z" fill="black" fill-opacity="0.03"/>
<path d="M57.854 85.128H70.2059V98.2855H57.854C54.2806 98.2855 50.7874 99.3451 47.8162 101.33C44.845 103.316 42.5293 106.137 41.1618 109.439C39.7943 112.74 39.4365 116.373 40.1336 119.878C40.8308 123.383 42.5515 126.602 45.0783 129.129C47.6051 131.656 50.8244 133.376 54.3292 134.073C57.834 134.771 61.4668 134.413 64.7682 133.045C68.0696 131.678 70.8914 129.362 72.8767 126.391C74.8619 123.42 75.9216 119.926 75.9216 116.353V48.6476C75.9363 40.5687 79.0818 32.8099 84.6971 27.0015C90.3124 21.193 97.9604 17.7871 106.034 17.4993L92.8384 4.26507C90.0988 1.53375 86.388 0 82.5195 0C78.651 0 74.9403 1.53375 72.2007 4.26507L54.7852 21.6805C59.1073 23.9644 62.8328 27.2311 65.6618 31.2177C68.4908 35.2043 70.3442 39.7994 71.073 44.6331C71.8018 49.4669 71.3855 54.4042 69.8576 59.0477C68.3297 63.6912 65.7329 67.911 62.2763 71.3677C58.8197 74.8243 54.5999 77.421 49.9564 78.9489C45.3129 80.4768 40.3756 80.8931 35.5418 80.1643C30.7081 79.4356 26.113 77.5821 22.1264 74.7531C18.1397 71.9241 14.873 68.1986 12.5892 63.8765L4.26507 72.2007C1.53375 74.9402 0 78.651 0 82.5195C0 86.388 1.53375 90.0988 4.26507 92.8383L26.8591 115.087C27.1844 107.067 30.5858 99.4797 36.3574 93.901C42.1289 88.3223 49.8272 85.1806 57.854 85.128Z" fill="black" fill-opacity="0.03"/>
<path d="M125.098 97.8245C120.749 97.8515 116.555 99.4468 113.287 102.317C110.019 105.188 107.897 109.141 107.309 113.451C106.721 117.76 107.708 122.137 110.088 125.778C112.468 129.419 116.082 132.078 120.265 133.269L142.476 111.25C141.462 107.411 139.209 104.014 136.067 101.587C132.925 99.159 129.069 97.8365 125.098 97.8245Z" fill="black" fill-opacity="0.03"/>
<path d="M160.735 72.2001L138.333 49.8746C138.035 57.9518 134.621 65.5999 128.806 71.2143C122.992 76.8286 115.229 79.9728 107.146 79.9872H94.7941V66.7146H107.146C110.719 66.7146 114.213 65.655 117.184 63.6697C120.155 61.6844 122.471 58.8626 123.838 55.5612C125.206 52.2598 125.564 48.627 124.866 45.1222C124.169 41.6175 122.449 38.3981 119.922 35.8713C117.395 33.3446 114.176 31.6238 110.671 30.9266C107.166 30.2295 103.533 30.5873 100.232 31.9548C96.9304 33.3223 94.1087 35.638 92.1234 38.6092C90.1381 41.5804 89.0784 45.0736 89.0784 48.647V116.352C89.0641 124.435 85.9199 132.198 80.3055 138.013C74.6912 143.827 67.0431 147.242 58.9658 147.539L72.2 160.735C74.9396 163.466 78.6503 165 82.5189 165C86.3874 165 90.0981 163.466 92.8377 160.735L110.215 143.32C105.893 141.036 102.167 137.769 99.3383 133.782C96.5093 129.796 94.6558 125.201 93.927 120.367C93.1983 115.533 93.6146 110.596 95.1424 105.952C96.6703 101.309 99.2671 97.089 102.724 93.6324C106.18 90.1758 110.4 87.5791 115.044 86.0512C119.687 84.5233 124.624 84.107 129.458 84.8358C134.292 85.5645 138.887 87.418 142.874 90.247C146.86 93.076 150.127 96.8015 152.411 101.124L160.735 92.8378C163.466 90.0982 165 86.3875 165 82.5189C165 78.6504 163.466 74.9397 160.735 72.2001Z" fill="black" fill-opacity="0.03"/>
<path d="M89.0784 116.352V48.647C89.0784 45.0736 90.1381 41.5804 92.1234 38.6092C94.1086 35.638 96.9304 33.3222 100.232 31.9547C103.533 30.5872 107.166 30.2294 110.671 30.9266C114.176 31.6237 117.395 33.3445 119.922 35.8713C122.448 38.3981 124.169 41.6174 124.866 45.1222C125.564 48.6269 125.206 52.2597 123.838 55.5612C122.471 58.8626 120.155 61.6843 117.184 63.6696C114.213 65.6549 110.719 66.7146 107.146 66.7146H94.7941V79.872H107.146C115.21 79.8589 122.956 76.7306 128.768 71.1407C134.579 65.5507 138.006 57.9315 138.333 49.8745L106.034 17.4987C97.9597 17.7865 90.3117 21.1924 84.6964 27.0008C79.0811 32.8093 75.9357 40.5681 75.9209 48.647V116.352C75.9209 119.926 74.8613 123.419 72.876 126.39C70.8907 129.361 68.0689 131.677 64.7675 133.045C61.4661 134.412 57.8333 134.77 54.3285 134.073C50.8238 133.376 47.6045 131.655 45.0777 129.128C42.5509 126.601 40.8301 123.382 40.133 119.877C39.4358 116.372 39.7936 112.74 41.1611 109.438C42.5286 106.137 44.8444 103.315 47.8156 101.33C50.7868 99.3445 54.2799 98.2849 57.8534 98.2849H70.2053V85.1274H57.8534C49.8265 85.1799 42.1283 88.3217 36.3567 93.9004C30.5852 99.4791 27.1837 107.066 26.8585 115.087L59.1192 147.386C67.143 147.051 74.7303 143.641 80.308 137.863C85.8858 132.086 89.0263 124.383 89.0784 116.352Z" fill="white"/>
<path d="M39.901 80.3324C46.8387 80.3233 53.5759 78.004 59.049 73.7405C64.5222 69.4771 68.4196 63.5123 70.126 56.7876C71.8325 50.063 71.2508 42.9616 68.4728 36.6043C65.6948 30.247 60.8787 24.9959 54.7847 21.6799L44.7344 31.7303C47.7829 32.5683 50.5581 34.1916 52.7828 36.438C55.0075 38.6845 56.6038 41.4753 57.4122 44.5318C58.2206 47.5884 58.2127 50.8035 57.3895 53.856C56.5663 56.9086 54.9565 59.6916 52.7209 61.9272C50.4853 64.1628 47.7022 65.7726 44.6497 66.5959C41.5971 67.4191 38.382 67.4269 35.3255 66.6185C32.269 65.8101 29.4781 64.2138 27.2317 61.9891C24.9853 59.7644 23.3619 56.9892 22.5239 53.9407L12.4736 63.991C15.1583 68.9253 19.1215 73.0462 23.9472 75.9214C28.773 78.7966 34.2836 80.3202 39.901 80.3324Z" fill="white"/>
<path d="M125.098 84.667C118.161 84.6761 111.424 86.9954 105.95 91.2588C100.477 95.5223 96.5799 101.487 94.8735 108.212C93.167 114.936 93.7487 122.038 96.5267 128.395C99.3047 134.752 104.121 140.003 110.215 143.319L120.265 133.269C117.203 132.438 114.413 130.815 112.178 128.563C109.942 126.311 108.339 123.51 107.529 120.442C106.72 117.374 106.732 114.147 107.566 111.085C108.4 108.024 110.025 105.236 112.279 103.002C114.532 100.768 117.334 99.1666 120.403 98.3594C123.472 97.5523 126.699 97.5675 129.76 98.4037C132.821 99.2398 135.607 100.867 137.84 103.123C140.072 105.378 141.671 108.181 142.476 111.25L152.526 101.2C149.866 96.2301 145.914 92.0704 141.087 89.1604C136.259 86.2503 130.735 84.6979 125.098 84.667Z" fill="white"/>
</svg>
