<svg width="62" height="62" viewBox="0 0 62 62" fill="none" xmlns="http://www.w3.org/2000/svg">
<path d="M62 31C62 48.125 48.125 62 31 62C13.875 62 0 48.125 0 31C0 13.875 13.875 0 31 0C48.125 0 62 13.875 62 31ZM6 31C6 44.875 17.25 56 31 56C44.875 56 56 44.875 56 31C56 17.25 44.875 6 31 6C17.25 6 6 17.25 6 31ZM15 28.5C15 27.75 15.75 27 16.5 27H31V18.625C31 17.375 32.625 16.625 33.625 17.625L46 30C46.625 30.625 46.625 31.5 46 32.125L33.625 44.5C32.625 45.375 31 44.75 31 43.375V35H16.5C15.75 35 15 34.375 15 33.5V28.5Z" fill="#F2CB12"/>
</svg>
