<svg width="48" height="48" viewBox="0 0 48 48" fill="none" xmlns="http://www.w3.org/2000/svg">
<path d="M24 0.75C11.1562 0.75 0.75 11.1562 0.75 24C0.75 36.8438 11.1562 47.25 24 47.25C36.8438 47.25 47.25 36.8438 47.25 24C47.25 11.1562 36.8438 0.75 24 0.75ZM24 42.75C13.5938 42.75 5.25 34.4062 5.25 24C5.25 13.6875 13.5938 5.25 24 5.25C34.3125 5.25 42.75 13.6875 42.75 24C42.75 34.4062 34.3125 42.75 24 42.75ZM21 13.125V24H14.7188C13.6875 24 13.2188 25.2188 13.875 25.9688L23.1562 35.25C23.625 35.7188 24.2812 35.7188 24.75 35.25L34.0312 25.9688C34.7812 25.2188 34.2188 24 33.2812 24H27V13.125C27 12.5625 26.4375 12 25.875 12H22.125C21.4688 12 21 12.5625 21 13.125Z" fill="white" fill-opacity="0.5"/>
</svg>
