<svg width="31" height="32" viewBox="0 0 31 32" fill="none" xmlns="http://www.w3.org/2000/svg">
<path d="M19.7879 17.7098C19.2656 17.7098 18.2612 19.6585 17.6585 19.6585C17.4978 19.6585 17.3571 19.5982 17.2165 19.5179C16.0915 18.9554 15.1071 18.3728 14.183 17.4888C13.4196 16.7656 12.5759 15.6808 12.1339 14.7366C12.0737 14.6362 12.0335 14.5357 12.0335 14.4353C12.0335 13.9732 13.4196 13.1094 13.4196 12.346C13.4196 12.1451 12.3951 9.41295 12.2545 9.07143C12.0536 8.54911 11.9531 8.38839 11.4107 8.38839C11.1496 8.38839 10.9085 8.32812 10.6674 8.32812C10.2455 8.32812 9.92411 8.48884 9.62277 8.77009C8.65848 9.67411 8.17634 10.6183 8.13616 11.9442V12.1049C8.11607 13.4911 8.79911 14.8772 9.5625 16.0022C11.2902 18.5536 13.0781 20.7835 15.9509 22.0893C16.8147 22.4911 18.8036 23.3348 19.7679 23.3348C20.9129 23.3348 22.7812 22.6116 23.2433 21.4866C23.4241 21.0246 23.5848 20.4621 23.5848 19.9598C23.5848 19.8795 23.5848 19.7589 23.5446 19.6585C23.404 19.4174 20.1295 17.7098 19.7879 17.7098ZM15.7098 28.3571C13.2589 28.3571 10.8281 27.6138 8.77902 26.2679L3.91741 27.8147L5.50446 23.1339C3.9375 20.9844 3.09375 18.3929 3.09375 15.7411C3.09375 8.79018 8.75893 3.125 15.7098 3.125C22.6607 3.125 28.3259 8.79018 28.3259 15.7411C28.3259 22.692 22.6607 28.3571 15.7098 28.3571ZM15.7098 0.593748C7.35268 0.593748 0.5625 7.38393 0.5625 15.7411C0.5625 18.4933 1.3058 21.2054 2.73214 23.5558L0 31.692L8.37723 29C10.6272 30.2455 13.1585 30.8884 15.7098 30.8884C24.067 30.8884 30.8571 24.0982 30.8571 15.7411C30.8571 7.38393 24.067 0.593748 15.7098 0.593748Z" fill="#F2CB12"/>
</svg>
