<svg width="36" height="37" viewBox="0 0 36 37" fill="none" xmlns="http://www.w3.org/2000/svg">
<path d="M23.8862 26.3996C23.6652 27.3839 23.0826 27.625 22.2589 27.1629L17.7589 23.8482L15.5893 25.9375C15.3482 26.1786 15.1473 26.3795 14.6853 26.3795L15.0067 21.7991L23.3438 14.2656C23.7054 13.9442 23.2634 13.7634 22.7812 14.0848L12.4754 20.5737L8.03571 19.1875C7.07143 18.8862 7.05134 18.2232 8.23661 17.7612L25.5938 11.0714C26.3973 10.7701 27.1004 11.2522 26.8393 12.4777L23.8862 26.3996ZM36 18.1429C36 8.19866 27.9442 0.142855 18 0.142855C8.0558 0.142855 0 8.19866 0 18.1429C0 28.0871 8.0558 36.1429 18 36.1429C27.9442 36.1429 36 28.0871 36 18.1429Z" fill="#F2CB12"/>
</svg>
