<svg width="32" height="32" viewBox="0 0 32 32" fill="none" xmlns="http://www.w3.org/2000/svg">
<path d="M21.5714 16.1429C21.5714 18.9754 19.2612 21.2857 16.4286 21.2857C13.596 21.2857 11.2857 18.9754 11.2857 16.1429C11.2857 13.3103 13.596 11 16.4286 11C19.2612 11 21.5714 13.3103 21.5714 16.1429ZM24.3438 16.1429C24.3438 11.7634 20.808 8.22768 16.4286 8.22768C12.0491 8.22768 8.51339 11.7634 8.51339 16.1429C8.51339 20.5223 12.0491 24.058 16.4286 24.058C20.808 24.058 24.3438 20.5223 24.3438 16.1429ZM26.5134 7.90625C26.5134 6.8817 25.6897 6.05803 24.6652 6.05803C23.6406 6.05803 22.817 6.8817 22.817 7.90625C22.817 8.9308 23.6406 9.75446 24.6652 9.75446C25.6897 9.75446 26.5134 8.9308 26.5134 7.90625ZM16.4286 3.48661C18.6786 3.48661 23.5 3.3058 25.529 4.10937C26.2321 4.39062 26.7545 4.73214 27.2969 5.27455C27.8393 5.81696 28.1808 6.33928 28.4621 7.04241C29.2656 9.07143 29.0848 13.8929 29.0848 16.1429C29.0848 18.3929 29.2656 23.2143 28.4621 25.2433C28.1808 25.9464 27.8393 26.4688 27.2969 27.0112C26.7545 27.5536 26.2321 27.8951 25.529 28.1763C23.5 28.9799 18.6786 28.7991 16.4286 28.7991C14.1786 28.7991 9.35714 28.9799 7.32813 28.1763C6.625 27.8951 6.10268 27.5536 5.56027 27.0112C5.01786 26.4688 4.67634 25.9464 4.39509 25.2433C3.59152 23.2143 3.77232 18.3929 3.77232 16.1429C3.77232 13.8929 3.59152 9.07143 4.39509 7.04241C4.67634 6.33928 5.01786 5.81696 5.56027 5.27455C6.10268 4.73214 6.625 4.39062 7.32813 4.10937C9.35714 3.3058 14.1786 3.48661 16.4286 3.48661ZM31.8571 16.1429C31.8571 14.0134 31.8772 11.904 31.7567 9.77455C31.6362 7.30357 31.0737 5.11384 29.2656 3.3058C27.4576 1.49777 25.2679 0.935266 22.7969 0.814732C20.6674 0.694196 18.558 0.714284 16.4286 0.714284C14.2991 0.714284 12.1897 0.694196 10.0603 0.814732C7.58929 0.935266 5.39955 1.49777 3.59152 3.3058C1.78348 5.11384 1.22098 7.30357 1.10045 9.77455C0.979911 11.904 1 14.0134 1 16.1429C1 18.2723 0.979911 20.3817 1.10045 22.5112C1.22098 24.9821 1.78348 27.1719 3.59152 28.9799C5.39955 30.7879 7.58929 31.3504 10.0603 31.471C12.1897 31.5915 14.2991 31.5714 16.4286 31.5714C18.558 31.5714 20.6674 31.5915 22.7969 31.471C25.2679 31.3504 27.4576 30.7879 29.2656 28.9799C31.0737 27.1719 31.6362 24.9821 31.7567 22.5112C31.8772 20.3817 31.8571 18.2723 31.8571 16.1429Z" fill="#F2CB12"/>
</svg>
