<svg width="31" height="32" viewBox="0 0 31 32" fill="none" xmlns="http://www.w3.org/2000/svg">
<path d="M23.5647 19.4978C23.5647 23.5759 19.6272 25.4643 15.8504 25.4643C11.3304 25.4643 7.55357 23.4554 7.55357 20.9844C7.55357 19.8795 8.17634 18.875 9.58259 18.875C11.7321 18.875 11.933 21.9687 15.6496 21.9687C17.4174 21.9687 18.5625 21.1853 18.5625 20.1607C18.5625 18.875 17.4576 18.6741 15.6696 18.2321L12.7366 17.5089C9.80357 16.8058 7.55357 15.6004 7.55357 12.2254C7.55357 8.14732 11.5915 6.64062 15.067 6.64062C18.8638 6.64062 22.7009 8.14732 22.7009 10.4576C22.7009 11.6228 21.9174 12.6473 20.6116 12.6473C18.6629 12.6473 18.6027 10.3371 15.4487 10.3371C13.6808 10.3371 12.5558 10.8192 12.5558 11.8839C12.5558 13.0491 13.7009 13.3103 15.2277 13.6719L17.317 14.154C20.1696 14.7969 23.5647 16.0022 23.5647 19.4978ZM30.8571 23.8571C30.8571 22.0893 30.2545 20.4621 29.25 19.1562C29.4509 18.192 29.5714 17.1674 29.5714 16.1429C29.5714 8.32812 23.2433 2 15.4286 2C14.404 2 13.3795 2.12053 12.4152 2.32143C11.1094 1.31696 9.48214 0.714284 7.71429 0.714284C3.45536 0.714284 0 4.16964 0 8.42857C0 10.1964 0.602679 11.8237 1.60714 13.1295C1.40625 14.0937 1.28571 15.1183 1.28571 16.1429C1.28571 23.9576 7.61384 30.2857 15.4286 30.2857C16.4531 30.2857 17.4777 30.1652 18.442 29.9643C19.7478 30.9688 21.375 31.5714 23.1429 31.5714C27.4018 31.5714 30.8571 28.1161 30.8571 23.8571Z" fill="#F2CB12"/>
</svg>
