<svg width="40" height="24" viewBox="0 0 40 24" fill="none" xmlns="http://www.w3.org/2000/svg">
<path d="M39.5112 2.58928C39.5112 2.58928 39.2299 1.78571 37.4821 2.0067L31.6964 2.04688C31.2545 1.98661 30.933 2.16741 30.933 2.16741C30.933 2.16741 30.5915 2.34821 30.4308 2.79018C29.4866 5.22098 28.2813 7.31027 28.2813 7.31027C25.7098 11.6897 24.6652 11.9308 24.2433 11.6496C23.2589 11.0268 23.5201 9.1183 23.5201 7.75223C23.5201 3.4933 24.1629 1.72545 22.2545 1.26339C21.6317 1.12277 21.1696 1.02232 19.5424 1.00223C17.4732 0.982141 15.7254 1.00223 14.7411 1.48438C14.0781 1.8058 13.5759 2.52902 13.8772 2.5692C14.2589 2.62946 15.1228 2.81027 15.5848 3.43303C15.5848 3.43303 16.0871 4.2567 16.1674 6.06473C16.3884 11.067 15.3638 11.6897 15.3638 11.6897C14.5804 12.1116 13.2143 11.4085 11.2054 7.27009C11.2054 7.27009 10.0402 5.22098 9.13616 2.97098C8.97545 2.54911 8.65402 2.32812 8.65402 2.32812C8.65402 2.32812 8.29241 2.04688 7.77009 1.96652L2.26562 2.0067C1.42188 2.0067 1.12054 2.38839 1.12054 2.38839C1.12054 2.38839 0.819196 2.70982 1.10045 3.37277C5.39955 13.4777 10.3013 18.5402 10.3013 18.5402C10.3013 18.5402 14.7813 23.221 19.8638 22.8996H22.1741C22.8772 22.8393 23.2388 22.4576 23.2388 22.4576C23.2388 22.4576 23.5603 22.096 23.5402 21.433C23.5 18.3393 24.9464 17.8772 24.9464 17.8772C26.3527 17.4353 28.1607 20.8705 30.0893 22.1964C30.0893 22.1964 31.5558 23.2009 32.6607 22.9799L37.8036 22.8996C40.5156 22.8795 39.2299 20.6295 39.2299 20.6295C39.1295 20.4487 38.4866 19.0625 35.3929 16.1897C32.1786 13.1964 32.6004 13.6786 36.4978 8.49554C38.8683 5.34152 39.8125 3.41295 39.5112 2.58928Z" fill="#F2CB12"/>
</svg>
